<svg width="288" height="288" viewBox="0 0 288 288" fill="none" xmlns="http://www.w3.org/2000/svg">
<g filter="url(#filter0_d_171_256)">
<circle cx="144" cy="140" r="132" fill="#F4F4F4"/>
</g>
<circle cx="144" cy="140" r="125.5" stroke="#4ABC4D"/>
<g clip-path="url(#clip0_171_256)">
<path d="M66.0032 154.618C66.136 162.206 66.2441 169.793 66.3465 177.381L66.3807 180.226V180.404L66.3883 180.628L66.4034 181.097L66.4376 182.034C66.4717 182.657 66.5343 183.282 66.5893 183.906C66.8549 186.398 67.4069 188.865 68.2092 191.239C69.8121 195.994 72.4392 200.39 75.8725 204.013C79.3039 207.635 83.4922 210.549 88.1338 212.427C90.4517 213.368 92.8721 214.055 95.3323 214.48C95.6396 214.533 95.9469 214.59 96.2561 214.635L97.1836 214.751C97.4928 214.785 97.802 214.832 98.1131 214.853L99.0444 214.921C99.6647 214.975 100.287 214.977 100.907 214.992L101.374 215H101.573H101.751L102.466 214.996C110.086 214.951 117.704 214.934 125.323 214.913C140.561 214.896 155.8 214.907 171.037 214.989L173.932 214.998C174.552 214.983 175.174 214.983 175.795 214.945L176.726 214.881C177.037 214.858 177.346 214.839 177.657 214.798C180.137 214.533 182.597 214.012 184.977 213.237C187.358 212.463 189.661 211.439 191.831 210.189C193.999 208.932 196.04 207.451 197.908 205.772C201.647 202.417 204.71 198.261 206.787 193.595C207.833 191.266 208.629 188.814 209.172 186.297C209.206 186.141 209.244 185.984 209.274 185.825L209.36 185.351L209.525 184.399C209.631 183.764 209.699 183.124 209.783 182.483C209.853 181.843 209.891 181.201 209.94 180.557L210.04 179.102C210.6 171.514 211.3 163.927 212.226 156.339C212.687 152.545 213.203 148.75 213.791 144.957C214.382 141.164 215.027 137.369 215.851 133.575H184.706C185.531 137.369 186.174 141.164 186.766 144.957C187.354 148.75 187.872 152.545 188.331 156.339C189.257 163.927 189.957 171.514 190.516 179.102L190.613 180.492C190.63 180.796 190.668 181.103 190.683 181.409L190.696 181.868C190.7 182.021 190.713 182.175 190.702 182.329L190.687 182.788L190.681 183.018C190.677 183.095 190.668 183.171 190.662 183.247C190.63 183.551 190.626 183.862 190.573 184.165C190.531 184.469 190.501 184.779 190.429 185.079L190.342 185.536C190.308 185.687 190.266 185.837 190.228 185.988C190.188 186.137 190.158 186.292 190.114 186.441L189.976 186.887C189.801 187.488 189.564 188.069 189.312 188.647C189.188 188.938 189.035 189.214 188.904 189.503C188.752 189.781 188.602 190.06 188.443 190.338C187.781 191.424 187.011 192.463 186.112 193.391C185.216 194.32 184.219 195.165 183.13 195.877C182.037 196.583 180.867 197.169 179.642 197.615C178.416 198.061 177.138 198.371 175.833 198.531C175.671 198.559 175.506 198.569 175.341 198.582L174.848 198.626C174.518 198.65 174.186 198.646 173.856 198.663L171.037 198.678C155.8 198.76 140.561 198.771 125.323 198.754C117.704 198.733 110.086 198.716 102.466 198.671L101.751 198.667H101.573C101.514 198.667 101.448 198.667 101.414 198.663L101.165 198.654C100.835 198.639 100.501 198.643 100.175 198.605L99.6818 198.565C99.5168 198.556 99.3555 198.522 99.1924 198.503L98.703 198.439C98.5418 198.412 98.3805 198.378 98.2193 198.348C96.9313 198.106 95.6737 197.724 94.4711 197.216C93.2666 196.712 92.1247 196.058 91.0587 195.301C89.9946 194.543 89.0101 193.669 88.1338 192.701C86.3754 190.769 85.0741 188.457 84.3059 186.005C83.9265 184.775 83.6762 183.509 83.5756 182.225C83.5642 181.902 83.5339 181.58 83.5244 181.257V180.772L83.5187 180.53V180.4V180.222L83.5529 177.377C83.6553 169.789 83.7653 162.202 83.8962 154.614C84.1561 139.439 84.4823 124.262 84.8826 109.087L84.9015 108.392L84.9338 107.944C84.947 107.795 84.947 107.646 84.966 107.499L85.021 107.057C85.0457 106.76 85.1064 106.471 85.1557 106.18C85.1936 105.887 85.279 105.604 85.3359 105.317C85.609 104.178 85.9941 103.073 86.5119 102.032C87.5438 99.9537 89.0139 98.0949 90.8026 96.6535C91.6979 95.9356 92.6634 95.3179 93.6745 94.8135C94.6874 94.311 95.742 93.9238 96.8194 93.6536C97.8987 93.3854 99.0008 93.2494 100.109 93.2267C100.386 93.2267 100.661 93.2097 100.941 93.2324L102 93.2702L104.856 93.3778L110.57 93.5932L116.283 93.8312L121.996 94.0692L127.71 94.3299C135.329 94.6775 142.947 95.061 150.567 95.5238V68.5158C142.947 68.9786 135.329 69.364 127.71 69.7097L121.996 69.9704L116.283 70.2084L110.57 70.4464L104.856 70.6618L102 70.7694L101.214 70.8016L100.203 70.8526C99.53 70.879 98.8566 70.9565 98.1833 71.0245C95.4954 71.3267 92.836 71.9161 90.2772 72.7756C85.1595 74.5098 80.4743 77.3453 76.599 80.9818C72.7332 84.6277 69.6698 89.0783 67.68 93.9653C66.6785 96.4041 65.9577 98.9544 65.5157 101.541C65.4152 102.188 65.2976 102.835 65.2369 103.486C65.1667 104.136 65.0927 104.786 65.0643 105.438L65.0112 106.414C64.996 106.739 65.0017 107.064 64.996 107.389L64.9922 108.364L65.0093 109.091C65.4095 124.266 65.7339 139.443 65.9956 154.618H66.0032Z" fill="#4ABC4D"/>
<path d="M141.705 144.455L126.684 122.022L104.661 143.954L135.936 164.726L143.463 169.725L148.313 163.838L223 73.1629L201.268 57L141.705 144.455Z" fill="#4ABC4D"/>
</g>
<defs>
<filter id="filter0_d_171_256" x="0" y="0" width="288" height="288" filterUnits="userSpaceOnUse" color-interpolation-filters="sRGB">
<feFlood flood-opacity="0" result="BackgroundImageFix"/>
<feColorMatrix in="SourceAlpha" type="matrix" values="0 0 0 0 0 0 0 0 0 0 0 0 0 0 0 0 0 0 127 0" result="hardAlpha"/>
<feOffset dy="4"/>
<feGaussianBlur stdDeviation="6"/>
<feComposite in2="hardAlpha" operator="out"/>
<feColorMatrix type="matrix" values="0 0 0 0 0 0 0 0 0 0 0 0 0 0 0 0 0 0 0.2 0"/>
<feBlend mode="normal" in2="BackgroundImageFix" result="effect1_dropShadow_171_256"/>
<feBlend mode="normal" in="SourceGraphic" in2="effect1_dropShadow_171_256" result="shape"/>
</filter>
<clipPath id="clip0_171_256">
<rect width="158" height="158" fill="white" transform="translate(65 57)"/>
</clipPath>
</defs>
</svg>
