<svg width="25" height="24" viewBox="0 0 25 24" fill="none" xmlns="http://www.w3.org/2000/svg">
<path d="M21.2157 17.6754L15.6258 15.2754C15.4423 15.1968 15.2395 15.1748 15.0435 15.2125C14.8475 15.2501 14.6672 15.3455 14.5258 15.4864L12.1919 17.7864C10.9731 17.0534 9.84062 16.1857 8.81594 15.1994C7.83096 14.1756 6.96297 13.0453 6.228 11.8295L8.52795 9.49953C8.66838 9.35784 8.76323 9.17739 8.80029 8.98137C8.83736 8.78535 8.81495 8.58273 8.73594 8.39955L6.33599 2.80966C6.24162 2.59011 6.07174 2.41162 5.85712 2.30651C5.6425 2.2014 5.39733 2.17663 5.16602 2.23668L0.76611 3.39965C0.546094 3.45634 0.351942 3.58626 0.215621 3.76802C0.0793007 3.94978 0.00894023 4.17254 0.0161255 4.39963C0.296197 9.51326 2.42284 14.3514 6.001 18.0153C9.66595 21.5949 14.5063 23.7213 19.6217 23.9992C19.8487 24.0065 20.0713 23.9362 20.2531 23.8001C20.4348 23.664 20.5648 23.4701 20.6217 23.2502L21.7837 18.8503C21.8454 18.6189 21.822 18.373 21.7178 18.1574C21.6135 17.9418 21.4354 17.7707 21.2157 17.6754Z" fill="#78D478"/>
<path d="M18.0155 9.99957C18.0155 10.2648 18.1209 10.5191 18.3084 10.7067C18.4959 10.8942 18.7503 10.9995 19.0155 10.9995C19.2807 10.9995 19.5351 10.8942 19.7226 10.7067C19.9101 10.5191 20.0155 10.2648 20.0155 9.99957C20.0139 8.40879 19.3813 6.88362 18.2564 5.75877C17.1316 4.63392 15.6064 4.00128 14.0156 3.99969C13.7504 3.99969 13.496 4.10505 13.3085 4.29258C13.121 4.48011 13.0156 4.73446 13.0156 4.99967C13.0156 5.26488 13.121 5.51923 13.3085 5.70677C13.496 5.8943 13.7504 5.99965 14.0156 5.99965C15.0764 5.99965 16.0938 6.42107 16.844 7.1712C17.5941 7.92133 18.0155 8.93873 18.0155 9.99957Z" fill="#78D478"/>
<path d="M14.0156 -0.000244141C13.7504 -0.000244141 13.496 0.105111 13.3085 0.292643C13.121 0.480175 13.0156 0.734524 13.0156 0.999735C13.0156 1.26495 13.121 1.51929 13.3085 1.70683C13.496 1.89436 13.7504 1.99971 14.0156 1.99971C16.1366 2.0021 18.17 2.8457 19.6697 4.34544C21.1695 5.84519 22.0131 7.87859 22.0154 9.99955C22.0154 10.2648 22.1208 10.5191 22.3083 10.7066C22.4959 10.8942 22.7502 10.9995 23.0154 10.9995C23.2806 10.9995 23.535 10.8942 23.7225 10.7066C23.91 10.5191 24.0154 10.2648 24.0154 9.99955C24.0125 7.34833 22.958 4.80654 21.0833 2.93184C19.2086 1.05715 16.6668 0.0026674 14.0156 -0.000244141Z" fill="#78D478"/>
</svg>
