<svg width="33" height="33" viewBox="0 0 33 33" fill="none" xmlns="http://www.w3.org/2000/svg">
<circle cx="16.2739" cy="16.3052" r="16" fill="#EBEBEB"/>
<path d="M14.927 20.0769V19.9916C14.9365 19.0873 15.0312 18.3676 15.2111 17.8326C15.391 17.2975 15.6467 16.8643 15.9781 16.5328C16.3096 16.2014 16.7073 15.896 17.1713 15.6166C17.4507 15.4462 17.7016 15.245 17.9242 15.013C18.1467 14.7762 18.3219 14.504 18.4497 14.1962C18.5823 13.8884 18.6486 13.5475 18.6486 13.1735C18.6486 12.7095 18.5397 12.307 18.3219 11.9661C18.1041 11.6252 17.8129 11.3624 17.4483 11.1777C17.0837 10.9931 16.6789 10.9007 16.2338 10.9007C15.8456 10.9007 15.4715 10.9812 15.1117 11.1422C14.7518 11.3032 14.4511 11.5565 14.2097 11.9022C13.9682 12.2478 13.8285 12.7 13.7906 13.2587H12.0009C12.0387 12.4538 12.2471 11.7648 12.6259 11.1919C13.0094 10.619 13.5136 10.181 14.1386 9.87801C14.7684 9.57498 15.4668 9.42347 16.2338 9.42347C17.0671 9.42347 17.7916 9.58919 18.4071 9.92063C19.0274 10.2521 19.5056 10.7066 19.8418 11.2843C20.1827 11.8619 20.3531 12.5201 20.3531 13.2587C20.3531 13.7795 20.2726 14.2506 20.1117 14.672C19.9554 15.0934 19.7281 15.4699 19.4298 15.8013C19.1363 16.1327 18.7812 16.4263 18.3645 16.682C17.9478 16.9424 17.614 17.217 17.3631 17.5059C17.1121 17.7899 16.9298 18.1285 16.8162 18.5215C16.7026 18.9145 16.641 19.4045 16.6315 19.9916V20.0769H14.927ZM15.8361 24.2814C15.4857 24.2814 15.185 24.1559 14.9341 23.905C14.6832 23.6541 14.5577 23.3534 14.5577 23.003C14.5577 22.6526 14.6832 22.352 14.9341 22.101C15.185 21.8501 15.4857 21.7246 15.8361 21.7246C16.1865 21.7246 16.4871 21.8501 16.7381 22.101C16.989 22.352 17.1145 22.6526 17.1145 23.003C17.1145 23.235 17.0553 23.4481 16.9369 23.6422C16.8233 23.8363 16.6694 23.9926 16.4753 24.111C16.2859 24.2246 16.0728 24.2814 15.8361 24.2814Z" fill="#133D70"/>
</svg>
