<svg width="33" height="33" viewBox="0 0 33 33" fill="none" xmlns="http://www.w3.org/2000/svg">
<path d="M19.669 22.6874L17.1623 25.1941L8.27344 16.3052L17.1623 7.41629L19.669 9.92295L15.0823 14.5274H32.2734V18.083H15.0823L19.669 22.6874ZM3.82899 0.305176H28.7179C29.6609 0.305176 30.5652 0.679778 31.232 1.34657C31.8988 2.01337 32.2734 2.91774 32.2734 3.86073V10.9718H28.7179V3.86073H3.82899V28.7496H28.7179V21.6385H32.2734V28.7496C32.2734 29.6926 31.8988 30.597 31.232 31.2638C30.5652 31.9306 29.6609 32.3052 28.7179 32.3052H3.82899C1.87344 32.3052 0.273438 30.7052 0.273438 28.7496V3.86073C0.273438 1.90518 1.87344 0.305176 3.82899 0.305176Z" fill="#EBEBEB"/>
</svg>
