<svg width="33" height="30" viewBox="0 0 33 30" fill="none" xmlns="http://www.w3.org/2000/svg">
<path d="M30.5367 15.6849C30.5367 6.90086 23.7207 0.932861 16.1367 0.932861C8.63272 0.932861 1.73672 6.77286 1.73672 15.7809C0.776719 16.3249 0.136719 17.3489 0.136719 18.5329V21.7329C0.136719 23.4929 1.57672 24.9329 3.33672 24.9329H4.93672V15.1729C4.93672 8.98086 9.94472 3.97286 16.1367 3.97286C22.3287 3.97286 27.3367 8.98086 27.3367 15.1729V26.5329H14.5367V29.7329H27.3367C29.0967 29.7329 30.5367 28.2929 30.5367 26.5329V24.5809C31.4807 24.0849 32.1367 23.1089 32.1367 21.9569V18.2769C32.1367 17.1569 31.4807 16.1809 30.5367 15.6849Z" fill="#F6F6FF"/>
<path d="M11.3368 18.5329C11.7612 18.5329 12.1681 18.3643 12.4682 18.0643C12.7682 17.7642 12.9368 17.3572 12.9368 16.9329C12.9368 16.5085 12.7682 16.1016 12.4682 15.8015C12.1681 15.5015 11.7612 15.3329 11.3368 15.3329C10.9125 15.3329 10.5055 15.5015 10.2054 15.8015C9.90539 16.1016 9.73682 16.5085 9.73682 16.9329C9.73682 17.3572 9.90539 17.7642 10.2054 18.0643C10.5055 18.3643 10.9125 18.5329 11.3368 18.5329Z" fill="#F6F6FF"/>
<path d="M20.9369 18.5329C21.3613 18.5329 21.7682 18.3643 22.0683 18.0643C22.3683 17.7642 22.5369 17.3572 22.5369 16.9329C22.5369 16.5085 22.3683 16.1016 22.0683 15.8015C21.7682 15.5015 21.3613 15.3329 20.9369 15.3329C20.5126 15.3329 20.1056 15.5015 19.8055 15.8015C19.5055 16.1016 19.3369 16.5085 19.3369 16.9329C19.3369 17.3572 19.5055 17.7642 19.8055 18.0643C20.1056 18.3643 20.5126 18.5329 20.9369 18.5329Z" fill="#F6F6FF"/>
<path d="M25.7368 13.7809C25.3553 11.5315 24.1902 9.48965 22.4479 8.01672C20.7056 6.54379 18.4983 5.73478 16.2168 5.73291C11.3688 5.73291 6.15277 9.74891 6.56877 16.0529C8.54178 15.2455 10.2844 13.9625 11.6411 12.3182C12.9979 10.6738 13.9267 8.71934 14.3448 6.62891C16.4408 10.8369 20.7448 13.7329 25.7368 13.7809Z" fill="#F6F6FF"/>
</svg>
